<svg width="59" height="59" viewBox="0 0 59 59" fill="none" xmlns="http://www.w3.org/2000/svg">
<path d="M29.971 4.74862L36.7098 0.145809C37.1319 -0.142563 37.7119 0.0128124 37.9333 0.47372L41.4678 7.82934C41.5406 7.98082 41.6574 8.10681 41.8029 8.19085C41.9485 8.27488 42.116 8.31304 42.2835 8.30034L50.4209 7.68347C50.9308 7.64486 51.3553 8.06936 51.3166 8.5792L50.6998 16.7166C50.6871 16.8841 50.7252 17.0516 50.8093 17.1972C50.8933 17.3427 51.0193 17.4595 51.1708 17.5323L58.5264 21.0668C58.9873 21.2883 59.1427 21.8682 58.8543 22.2904L54.2515 29.0291C54.1567 29.1679 54.106 29.332 54.106 29.5001C54.106 29.6681 54.1567 29.8322 54.2515 29.971L58.8543 36.7098C59.1427 37.1319 58.9873 37.7119 58.5264 37.9333L51.1708 41.4678C51.0193 41.5406 50.8933 41.6574 50.8093 41.8029C50.7252 41.9485 50.6871 42.116 50.6998 42.2835L51.3166 50.4209C51.3553 50.9308 50.9308 51.3553 50.4209 51.3166L42.2835 50.6998C42.116 50.6871 41.9485 50.7252 41.8029 50.8093C41.6574 50.8933 41.5406 51.0193 41.4678 51.1708L37.9333 58.5264C37.7118 58.9873 37.1319 59.1427 36.7098 58.8543L29.971 54.2515C29.8322 54.1567 29.6681 54.106 29.5001 54.106C29.332 54.106 29.1679 54.1567 29.0291 54.2515L22.2904 58.8543C21.8682 59.1427 21.2882 58.9873 21.0668 58.5264L17.5323 51.1708C17.4595 51.0193 17.3427 50.8933 17.1972 50.8093C17.0516 50.7252 16.8841 50.6871 16.7166 50.6998L8.5792 51.3166C8.06936 51.3553 7.64486 50.9308 7.68347 50.4209L8.30034 42.2835C8.31304 42.116 8.27488 41.9485 8.19085 41.8029C8.10681 41.6574 7.98082 41.5406 7.82934 41.4678L0.473604 37.9333C0.0126964 37.7118 -0.142679 37.1319 0.145693 36.7098L4.74851 29.971C4.8433 29.8322 4.89402 29.6681 4.89402 29.5001C4.89402 29.332 4.8433 29.1679 4.74851 29.0291L0.145809 22.2902C-0.142563 21.8681 0.0128123 21.2881 0.47372 21.0667L7.82934 17.5322C7.98082 17.4594 8.10681 17.3426 8.19085 17.1971C8.27488 17.0515 8.31304 16.884 8.30034 16.7165L7.68347 8.57908C7.64486 8.06925 8.06936 7.64475 8.5792 7.68336L16.7166 8.30022C16.8841 8.31292 17.0516 8.27476 17.1972 8.19073C17.3427 8.1067 17.4595 7.9807 17.5323 7.82923L21.0668 0.473604C21.2883 0.0126964 21.8682 -0.142679 22.2904 0.145693L29.0291 4.74851C29.1679 4.84333 29.332 4.89408 29.5 4.8941C29.6681 4.89412 29.8322 4.84342 29.971 4.74862Z" fill="#FFC639"/>
<path d="M29.5 52.0588C41.9589 52.0588 52.0588 41.9589 52.0588 29.5C52.0588 17.0411 41.9589 6.94118 29.5 6.94118C17.0411 6.94118 6.94116 17.0411 6.94116 29.5C6.94116 41.9589 17.0411 52.0588 29.5 52.0588Z" fill="#FFE564"/>
</svg>
