<svg width="65" height="65" viewBox="0 0 65 65" fill="none" xmlns="http://www.w3.org/2000/svg">
<path d="M13.0591 38.3357C19.9936 38.3357 25.6151 32.7141 25.6151 25.7796C25.6151 18.8451 19.9936 13.2236 13.0591 13.2236C6.12458 13.2236 0.503052 18.8451 0.503052 25.7796C0.503052 32.7141 6.12458 38.3357 13.0591 38.3357Z" fill="#FFD60D"/>
<path d="M56.0521 39.2817C55.3526 39.2817 54.6736 39.3683 54.0234 39.5286C54.1721 38.8837 54.2473 38.2241 54.2478 37.5623C54.2478 32.7224 50.3243 28.7989 45.4844 28.7989C43.7177 28.7965 41.9919 29.3306 40.5354 30.3306C38.8915 23.9969 33.1361 19.3201 26.2881 19.3201C18.1592 19.3201 11.5693 25.91 11.5693 34.0389C5.45765 34.0389 0.503052 38.9934 0.503052 45.1052C0.503052 51.2168 5.45752 56.1714 11.5693 56.1714H56.0521C60.7161 56.1714 64.4971 52.3905 64.4971 47.7265C64.4971 43.0626 60.7161 39.2817 56.0521 39.2817Z" fill="#B0E9FF"/>
</svg>
