<svg width="65" height="65" viewBox="0 0 65 65" fill="none" xmlns="http://www.w3.org/2000/svg">
<path d="M16.4287 20.8543C22.0736 20.8543 26.6498 16.2782 26.6498 10.6332C26.6498 4.98825 22.0736 0.412094 16.4287 0.412094C10.7837 0.412094 6.20755 4.98825 6.20755 10.6332C6.20755 16.2782 10.7837 20.8543 16.4287 20.8543Z" fill="#FFD60D"/>
<path d="M6.9589 52.8828C6.77369 52.8831 6.59026 52.8467 6.41914 52.7759C6.24803 52.705 6.09261 52.601 5.96181 52.4699C5.41121 51.9193 5.41121 51.0264 5.96181 50.4758L13.1703 43.2673C13.7209 42.7166 14.6138 42.7166 15.1644 43.2673C15.715 43.8179 15.715 44.7107 15.1644 45.2613L7.95586 52.4699C7.82509 52.601 7.6697 52.705 7.4986 52.7759C7.32751 52.8467 7.14409 52.8831 6.9589 52.8828ZM13.53 62.4575L20.3451 55.6424C20.8957 55.0918 20.8957 54.1991 20.3451 53.6484C19.7945 53.0978 18.9016 53.0975 18.351 53.6484L11.5359 60.4635C10.9853 61.0141 10.9853 61.9068 11.5359 62.4575C11.6667 62.5887 11.8222 62.6927 11.9933 62.7635C12.1644 62.8344 12.3478 62.8708 12.533 62.8705C12.8937 62.8705 13.2546 62.7329 13.53 62.4575ZM30.1667 52.5749L35.5967 47.1448C36.1475 46.5942 36.1475 45.7014 35.5967 45.1508C35.046 44.6 34.1534 44.6 33.6027 45.1508L28.1726 50.5808C27.622 51.1314 27.622 52.0243 28.1726 52.5749C28.4479 52.8502 28.8088 52.9878 29.1697 52.9878C29.5307 52.9878 29.8915 52.8502 30.1667 52.5749ZM28.2404 63.6911L36.1381 55.7936C36.6888 55.243 36.6888 54.3503 36.1381 53.7996C35.5875 53.2488 34.6949 53.2488 34.144 53.7996L26.2464 61.6971C25.6958 62.2477 25.6958 63.1404 26.2464 63.6911C26.3772 63.8223 26.5326 63.9263 26.7037 63.9971C26.8748 64.068 27.0583 64.1044 27.2435 64.1041C27.6043 64.1041 27.9652 63.9665 28.2404 63.6911ZM46.0945 56.2574L52.9588 49.393C53.5096 48.8424 53.5096 47.9496 52.9588 47.399C52.4081 46.8483 51.5155 46.8483 50.9648 47.399L44.1004 54.2633C43.5497 54.8139 43.5497 55.7068 44.1004 56.2574C44.3758 56.5327 44.7366 56.6704 45.0975 56.6704C45.4585 56.6704 45.8191 56.5327 46.0945 56.2574ZM48.8467 39.0719L39.6967 48.222C39.146 48.7727 39.146 49.6655 39.6967 50.2161C39.972 50.4914 40.3328 50.629 40.6938 50.629C41.0547 50.629 41.4155 50.4914 41.6909 50.2161L50.8409 41.0659C51.3916 40.5152 51.3916 39.6225 50.8409 39.0719C50.29 38.5211 49.3974 38.5211 48.8467 39.0719ZM54.4557 22.814C53.816 22.8141 53.1786 22.8917 52.5575 23.0451C52.6966 22.4416 52.767 21.8244 52.7674 21.2051C52.7674 16.6764 49.0962 13.0052 44.5675 13.0052C42.9143 13.0029 41.2994 13.5027 39.9366 14.4385C38.3985 8.51197 33.0131 4.13589 26.6053 4.13589C18.999 4.13589 12.8328 10.302 12.8328 17.9084C7.11404 17.9084 2.47809 22.5323 2.47809 28.251C2.47809 33.9697 7.11404 38.5936 12.8328 38.5936H27.1038L18.8297 46.8797C18.2791 47.4303 18.2791 48.3293 18.8297 48.8798C19.1049 49.1551 19.4658 49.2958 19.8267 49.2958C20.1877 49.2958 20.5485 49.1476 20.8238 48.8723L31.0921 38.5938H54.4557C58.8199 38.5938 62.3577 35.068 62.3577 30.7039C62.3576 26.3397 58.8198 22.814 54.4557 22.814Z" fill="#B0E9FF"/>
</svg>
