<svg width="65" height="65" viewBox="0 0 65 65" fill="none" xmlns="http://www.w3.org/2000/svg">
<path d="M40.9906 29.396L23.3938 46.7127L23.118 46.0468L40.5618 46.01H40.5676C40.6521 46.0098 40.7347 46.0349 40.8049 46.082C40.8751 46.1292 40.9295 46.1962 40.9614 46.2745C40.9932 46.3528 41.0009 46.4388 40.9834 46.5215C40.966 46.6042 40.9243 46.6799 40.8636 46.7387L24.0894 62.9948C24.0781 63.0061 24.0627 63.0125 24.0467 63.0125C24.0306 63.0124 24.0152 63.0061 24.0039 62.9947C23.9926 62.9834 23.9862 62.968 23.9862 62.952C23.9863 62.9359 23.9926 62.9205 24.004 62.9092L40.2601 46.1349L40.5618 46.8636L23.118 46.8268C23.0412 46.8267 22.9661 46.8039 22.9022 46.7613C22.8383 46.7187 22.7883 46.6582 22.7586 46.5873C22.7289 46.5165 22.7208 46.4385 22.7352 46.363C22.7497 46.2876 22.7861 46.2181 22.8398 46.1632L22.8422 46.1608L40.1589 28.5641C40.2135 28.5095 40.2784 28.4662 40.3497 28.4366C40.4211 28.4071 40.4976 28.3919 40.5748 28.3919C40.6521 28.3919 40.7285 28.4071 40.7999 28.4367C40.8712 28.4663 40.9361 28.5096 40.9907 28.5642C41.0453 28.6188 41.0886 28.6837 41.1182 28.755C41.1477 28.8264 41.1629 28.9029 41.1629 28.9801C41.1629 29.0574 41.1477 29.1339 41.1181 29.2052C41.0885 29.2766 41.0452 29.3414 40.9906 29.396Z" fill="#FFD60D"/>
<path d="M52.2322 21.7835C52.5342 21.0515 52.6894 20.2672 52.6887 19.4754C52.6887 16.1301 49.9769 13.4184 46.6318 13.4184C45.987 13.4184 45.3661 13.5201 44.7832 13.7067C43.4496 7.05718 37.578 2.04799 30.5359 2.04799C22.5102 2.04799 16.004 8.55421 16.004 16.5799C9.96988 16.5799 5.07825 21.4893 5.07825 27.5234C5.07825 33.5575 9.96975 38.4668 16.0038 38.4668H51.5842C56.1889 38.4668 59.9219 34.7161 59.9219 30.1114C59.9219 25.7249 56.5337 22.1145 52.2322 21.7835Z" fill="#95A7AF"/>
</svg>
